<svg version="1.1"  xmlns="http://www.w3.org/2000/svg" xmlns:xlink="http://www.w3.org/1999/xlink" x="0px"
	 y="0px" width="80" height="50" viewBox="-5 0 110 50" >
	<text x="50" y="50" font-size="15" text-anchor="middle" fill="white">ライニング検査</text>
	<g>
		<path fill="Red" d="M58.519,11.688c0.352-1.409,1.188-4.728,1.694-6.653C60.959,2.21,63.259,0,66.801,0h3.012
		c0,0-6.31,24.801-6.872,27.018C62.147,30.135,60.159,32,56.41,32h-3.054c0,0,2.766-10.965,2.885-11.343
		c0.119-0.378-0.264-1.224-1.01-1.224c-0.746,0-9.438,0.005-9.852,0.005c-0.414,0-0.909,0.272-1.038,0.786
		c-0.423,1.664-1.367,5.373-1.769,6.949C41.748,30.411,39.457,32,36.082,32h-3.055c0,0,6.265-24.627,6.816-26.799
		C40.691,1.866,43.073,0,46.467,0h3.018c0,0-2.648,10.417-2.83,11.125c-0.181,0.708,0.238,1.268,0.929,1.268h10.001
		C58.137,12.393,58.415,12.101,58.519,11.688"/>
		<path fill="white" d="M2.864,0H19.6c7.236,0,14.35,6.684,12.114,15.473l-1.949,7.851C28.777,27.206,24.734,32,17.907,32H3.678
		c-2.26,0-4.186-2.149-3.557-4.56c0.221-0.848,2.594-10.273,3.794-15.048C4.31,10.822,5.92,9.656,7.54,9.656h5.545
		c0,0-3.155,12.417-3.479,13.572c-0.279,0.991,0.537,1.727,1.339,1.727h5.525c2.818,0,5.093-1.705,5.736-4.232l1.704-6.785
		c0.883-3.439-1.857-7.019-5.229-7.019H9.783C5.757,6.919,2.864,3.655,2.864,0"/>
		<path fill="white" d="M71.957,12.921c0.252-0.993,0.699-2.752,0.913-3.593C74.235,3.951,79.012,0,84.568,0h19.32
		c0,0-0.679,1.471-1.336,2.904c-1.262,2.748-3.327,4.015-6.24,4.015H85.567C81.519,6.919,75.924,8.288,71.957,12.921 M81.132,9.547
		c-0.402,1.582-0.724,2.846-0.724,2.846h17.781c0,0-0.547,1.188-1.342,2.914c-1.359,2.949-3.248,4.131-6.22,4.131H79.388
		c-0.485,0-0.849,0.3-0.972,0.786c-0.399,1.568-1.29,5.064-1.673,6.578C75.843,30.337,73.11,32,70.158,32h-3.056
		c0,0,0.975-3.833,2.711-10.657C71.215,15.831,75.114,11.326,81.132,9.547"/>
	</g>
</svg>