<?xml version='1.0' encoding='UTF-8'?>
<svg viewBox="-6 -2 32 32" xmlns="http://www.w3.org/2000/svg" xmlns:xlink="http://www.w3.org/1999/xlink">
	<g id="Layer_1" transform="translate(-5.99999952316284, -2)" style="enable-background:new 0 0 32 32">
		<g id="List">
			<rect x="12" y="14" width="8" height="2" fill="#727272" class="Black" />
		</g>
	</g>
	<g id="Layer_1" transform="translate(-5.99999952316284, -2)" style="enable-background:new 0 0 32 32">
		<g id="List">
			<rect x="12" y="10" width="8" height="2" fill="#727272" class="Black" />
		</g>
	</g>
	<g id="Layer_1" transform="translate(-5.99999952316284, -2)" style="enable-background:new 0 0 32 32">
		<g id="List">
			<rect x="12" y="18" width="8" height="2" fill="#727272" class="Black" />
		</g>
	</g>
	<g id="Layer_1" transform="translate(-6, -2.00000011920929)" style="enable-background:new 0 0 32 32">
		<g id="List">
			<path d="M25, 4L7, 4C6.5, 4 6, 4.5 6, 5L6, 27C6, 27.5 6.5, 28 7, 28L25, 28C25.5, 28 26, 27.5 26, 27L26, 5C26, 4.5 25.5, 4 25, 4zM24, 26L8, 26L8, 6L24, 6L24, 26z" fill="#1177D7" class="Blue" />
		</g>
	</g>
	<g id="Layer_1" transform="translate(8, -2)" style="enable-background:new 0 0 16 16">

	</g>
	<g id="Layer_1" transform="translate(8, -2)" style="enable-background:new 0 0 16 16">
		<g id="AddCircled">
			<polygon points="14,8 10,8 10,4 8,4 8,8 4,8 4,10 8,10 8,14 10,14 10,10 14,10  " fill="Red" class="White" />
		</g>
	</g>
</svg>