<svg width="24" height="24" viewBox="0 0 24 24" fill="none" xmlns="http://www.w3.org/2000/svg">
<path d="M12 3L20 9V21H4V9L12 3ZM12 15C12.8333 15 13.5417 14.7083 14.125 14.125C14.7083 13.5417 15 12.8333 15 12C15 11.1667 14.7083 10.4583 14.125 9.875C13.5417 9.29167 12.8333 9 12 9C11.1667 9 10.4583 9.29167 9.875 9.875C9.29167 10.4583 9 11.1667 9 12C9 12.8333 9.29167 13.5417 9.875 14.125C10.4583 14.7083 11.1667 15 12 15ZM12 13C11.7167 13 11.4792 12.9042 11.2875 12.7125C11.0958 12.5208 11 12.2833 11 12C11 11.7167 11.0958 11.4792 11.2875 11.2875C11.4792 11.0958 11.7167 11 12 11C12.2833 11 12.5208 11.0958 12.7125 11.2875C12.9042 11.4792 13 11.7167 13 12C13 12.2833 12.9042 12.5208 12.7125 12.7125C12.5208 12.9042 12.2833 13 12 13ZM12 18C11.3167 18 10.65 18.0833 10 18.25C9.35 18.4167 8.73333 18.6667 8.15 19H15.85C15.2667 18.6667 14.65 18.4167 14 18.25C13.35 18.0833 12.6833 18 12 18ZM6 10V18C6.86667 17.35 7.80833 16.8542 8.825 16.5125C9.84167 16.1708 10.9 16 12 16C13.1 16 14.1583 16.1708 15.175 16.5125C16.1917 16.8542 17.1333 17.35 18 18V10L12 5.5L6 10Z" fill="#49454E"/>
</svg>
