<svg width="24" height="25" viewBox="0 0 24 25" fill="none" xmlns="http://www.w3.org/2000/svg">
<path d="M5 22.5C4.45 22.5 3.97917 22.3041 3.5875 21.9125C3.19583 21.5208 3 21.05 3 20.5V6.49997C3 5.94997 3.19583 5.47914 3.5875 5.08747C3.97917 4.6958 4.45 4.49997 5 4.49997H6V2.49997H8V4.49997H16V2.49997H18V4.49997H19C19.55 4.49997 20.0208 4.6958 20.4125 5.08747C20.8042 5.47914 21 5.94997 21 6.49997V20.5C21 21.05 20.8042 21.5208 20.4125 21.9125C20.0208 22.3041 19.55 22.5 19 22.5H5ZM5 20.5H19V10.5H5V20.5ZM5 8.49997H19V6.49997H5V8.49997Z" fill="#49454E"/>
</svg>
