<svg width="41" height="40" viewBox="0 0 41 40" fill="none" xmlns="http://www.w3.org/2000/svg">
<path d="M7.16667 33.3334V28.6667C7.16667 27.7222 7.40972 26.8542 7.89583 26.0625C8.38194 25.2709 9.02778 24.6667 9.83333 24.25C11.5556 23.3889 13.3056 22.7431 15.0833 22.3125C16.8611 21.882 18.6667 21.6667 20.5 21.6667C21.5278 21.6667 22.5417 21.7292 23.5417 21.8542C24.5417 21.9792 25.5417 22.1806 26.5417 22.4584L23.75 25.2917C23.1944 25.2084 22.6528 25.1389 22.125 25.0834C21.5972 25.0278 21.0556 25 20.5 25C18.9444 25 17.4028 25.1875 15.875 25.5625C14.3472 25.9375 12.8333 26.5 11.3333 27.25C11.0833 27.3889 10.8819 27.5834 10.7292 27.8334C10.5764 28.0834 10.5 28.3611 10.5 28.6667V30H20.5V33.3334H7.16667ZM23.8333 35V29.875L33.0417 20.7084C33.2917 20.4584 33.5694 20.2778 33.875 20.1667C34.1806 20.0556 34.4861 20 34.7917 20C35.125 20 35.4444 20.0625 35.75 20.1875C36.0556 20.3125 36.3333 20.5 36.5833 20.75L38.125 22.2917C38.3472 22.5417 38.5208 22.8195 38.6458 23.125C38.7708 23.4306 38.8333 23.7361 38.8333 24.0417C38.8333 24.3472 38.7778 24.6597 38.6667 24.9792C38.5556 25.2986 38.375 25.5834 38.125 25.8334L28.9583 35H23.8333ZM26.3333 32.5H27.9167L32.9583 27.4167L32.2083 26.625L31.4167 25.875L26.3333 30.9167V32.5ZM32.2083 26.625L31.4167 25.875L32.9583 27.4167L32.2083 26.625ZM20.5 20C18.6667 20 17.0972 19.3472 15.7917 18.0417C14.4861 16.7361 13.8333 15.1667 13.8333 13.3334C13.8333 11.5 14.4861 9.93058 15.7917 8.62502C17.0972 7.31946 18.6667 6.66669 20.5 6.66669C22.3333 6.66669 23.9028 7.31946 25.2083 8.62502C26.5139 9.93058 27.1667 11.5 27.1667 13.3334C27.1667 15.1667 26.5139 16.7361 25.2083 18.0417C23.9028 19.3472 22.3333 20 20.5 20ZM20.5 16.6667C21.4167 16.6667 22.2014 16.3403 22.8542 15.6875C23.5069 15.0347 23.8333 14.25 23.8333 13.3334C23.8333 12.4167 23.5069 11.632 22.8542 10.9792C22.2014 10.3264 21.4167 10 20.5 10C19.5833 10 18.7986 10.3264 18.1458 10.9792C17.4931 11.632 17.1667 12.4167 17.1667 13.3334C17.1667 14.25 17.4931 15.0347 18.1458 15.6875C18.7986 16.3403 19.5833 16.6667 20.5 16.6667Z" fill="#210F47"/>
</svg>
