<svg width="24" height="24" viewBox="0 0 24 24" fill="none" xmlns="http://www.w3.org/2000/svg">
<path fill-rule="evenodd" clip-rule="evenodd" d="M21 4H10.8157C10.4016 2.8385 9.3019 2 8 2C6.6852 2 5.5776 2.8555 5.1734 4.035C5.15221 4.03115 5.13167 4.02549 5.11116 4.01984L5.11115 4.01984L5.11115 4.01984C5.07512 4.00991 5.03918 4 5 4H3C2.4473 4 2 4.4478 2 5C2 5.5522 2.4473 6 3 6H5C5.03918 6 5.07512 5.99009 5.11115 5.98016L5.11115 5.98016L5.11116 5.98016C5.13167 5.97451 5.15221 5.96885 5.1734 5.965C5.5776 7.1445 6.6852 8 8 8C9.3019 8 10.4016 7.1615 10.8157 6H21C21.5527 6 22 5.5522 22 5C22 4.4478 21.5527 4 21 4ZM8 6C7.4482 6 7 5.5513 7 5C7 4.4487 7.4482 4 8 4C8.5518 4 9 4.4487 9 5C9 5.5513 8.5518 6 8 6ZM21 18H10.8157C10.4016 16.8385 9.3019 16 8 16C6.6852 16 5.5776 16.8555 5.1734 18.035C5.15223 18.0312 5.1317 18.0255 5.1112 18.0198L5.11115 18.0198L5.11114 18.0198C5.07511 18.0099 5.03918 18 5 18H3C2.4473 18 2 18.4478 2 19C2 19.5522 2.4473 20 3 20H5C5.03918 20 5.07511 19.9901 5.11114 19.9802L5.11115 19.9802L5.1112 19.9802C5.1317 19.9745 5.15223 19.9688 5.1734 19.965C5.5776 21.1445 6.6852 22 8 22C9.3019 22 10.4016 21.1615 10.8157 20H21C21.5527 20 22 19.5522 22 19C22 18.4478 21.5527 18 21 18ZM8 20C7.4482 20 7 19.5513 7 19C7 18.4487 7.4482 18 8 18C8.5518 18 9 18.4487 9 19C9 19.5513 8.5518 20 8 20ZM19 11H21C21.5527 11 22 11.4478 22 12C22 12.5522 21.5527 13 21 13H19C18.9608 13 18.9249 12.9901 18.8889 12.9802C18.8684 12.9745 18.8479 12.9688 18.8267 12.965C18.4224 14.1445 17.3148 15 16 15C14.698 15 13.5984 14.1615 13.1843 13H3C2.4473 13 2 12.5522 2 12C2 11.4478 2.4473 11 3 11H13.1843C13.5984 9.8385 14.6981 9 16 9C17.3148 9 18.4224 9.8555 18.8267 11.035C18.8479 11.0312 18.8684 11.0255 18.8889 11.0198C18.9249 11.0099 18.9608 11 19 11ZM15 12C15 12.5513 15.4482 13 16 13C16.5518 13 17 12.5513 17 12C17 11.4487 16.5518 11 16 11C15.4482 11 15 11.4487 15 12Z" fill="#49454E"/>
</svg>
