<!-- Resources/Images/keyboard.svg -->
<svg width="24" height="24" viewBox="0 0 24 24" fill="none" xmlns="http://www.w3.org/2000/svg">
	<rect x="2" y="6" width="20" height="12" rx="2" fill="#616161"/>
	<rect x="4" y="8" width="2" height="2" rx="1" fill="white"/>
	<rect x="7" y="8" width="2" height="2" rx="1" fill="white"/>
	<rect x="10" y="8" width="2" height="2" rx="1" fill="white"/>
	<rect x="13" y="8" width="2" height="2" rx="1" fill="white"/>
	<rect x="16" y="8" width="2" height="2" rx="1" fill="white"/>
	<rect x="4" y="11" width="2" height="2" rx="1" fill="white"/>
	<rect x="7" y="11" width="2" height="2" rx="1" fill="white"/>
	<rect x="10" y="11" width="2" height="2" rx="1" fill="white"/>
	<rect x="13" y="11" width="2" height="2" rx="1" fill="white"/>
	<rect x="16" y="11" width="2" height="2" rx="1" fill="white"/>
	<rect x="7" y="14" width="10" height="2" rx="1" fill="white"/>
</svg>
