<?xml version="1.0" encoding="utf-8"?>
<svg version="1.1" id="logo_dhf1" xmlns="http://www.w3.org/2000/svg" xmlns:xlink="http://www.w3.org/1999/xlink" x="0px" y="0px" width="56.856px" height="32px" viewBox="0 0 56.856 32" enable-background="new 0 0 56.856 32" xml:space="preserve">
	<path fill="#CA1C1D" d="M56.855,14.339v-3.498H30.201c0,0-2.698-10.841-15.138-10.841C2.623,0,0,10.841,0,10.841v3.498h26.454
		v3.248H0v3.497h26.454c0,0,3.148,10.917,15.438,10.917c12.291,0,14.963-10.917,14.963-10.917v-3.497H30.201v-3.248H56.855z
		 M53.059,21.083c0,0-2.173,7.544-10.941,7.544s-11.916-7.544-11.916-7.544H53.059z M4.122,10.841c0,0,2.023-7.469,10.867-7.469
		s11.466,7.469,11.466,7.469H4.122z"/>
</svg>
