<svg width="19" height="18" viewBox="0 0 19 18" fill="none" xmlns="http://www.w3.org/2000/svg">
<path d="M15.4625 15.75C13.9 15.75 12.3563 15.4094 10.8313 14.7281C9.30625 14.0469 7.91875 13.0813 6.66875 11.8313C5.41875 10.5813 4.45312 9.19375 3.77188 7.66875C3.09063 6.14375 2.75 4.6 2.75 3.0375C2.75 2.8125 2.825 2.625 2.975 2.475C3.125 2.325 3.3125 2.25 3.5375 2.25H6.575C6.75 2.25 6.90625 2.30937 7.04375 2.42812C7.18125 2.54688 7.2625 2.6875 7.2875 2.85L7.775 5.475C7.8 5.675 7.79375 5.84375 7.75625 5.98125C7.71875 6.11875 7.65 6.2375 7.55 6.3375L5.73125 8.175C5.98125 8.6375 6.27812 9.08437 6.62187 9.51562C6.96562 9.94688 7.34375 10.3625 7.75625 10.7625C8.14375 11.15 8.55 11.5094 8.975 11.8406C9.4 12.1719 9.85 12.475 10.325 12.75L12.0875 10.9875C12.2 10.875 12.3469 10.7906 12.5281 10.7344C12.7094 10.6781 12.8875 10.6625 13.0625 10.6875L15.65 11.2125C15.825 11.2625 15.9688 11.3531 16.0812 11.4844C16.1937 11.6156 16.25 11.7625 16.25 11.925V14.9625C16.25 15.1875 16.175 15.375 16.025 15.525C15.875 15.675 15.6875 15.75 15.4625 15.75ZM5.01875 6.75L6.25625 5.5125L5.9375 3.75H4.26875C4.33125 4.2625 4.41875 4.76875 4.53125 5.26875C4.64375 5.76875 4.80625 6.2625 5.01875 6.75ZM11.7313 13.4625C12.2188 13.675 12.7156 13.8438 13.2219 13.9688C13.7281 14.0938 14.2375 14.175 14.75 14.2125V12.5625L12.9875 12.2063L11.7313 13.4625Z" fill="#1F182B"/>
</svg>
