<?xml version='1.0' encoding='UTF-8'?>
<svg viewBox="-50 -0.625 800 800" xmlns="http://www.w3.org/2000/svg" xmlns:xlink="http://www.w3.org/1999/xlink">
  <g transform="matrix(25, 0, 0, 25, 0, 0)">
    <g id="Layer_1" transform="translate(-2.1954, -0.220600324249268)">
      <g transform="matrix(0.0404889024794102, 0, 0, 0.0404889024794102, 0, 0)">
        <g transform="matrix(8, 0, 0, 8, 0, 0)">
          <g>
            <path d="M93.194, 18C93.194, 15.53 91.192, 13.528 88.722, 13.528C88.494, 13.528 88.275, 13.562 88.055, 13.595L88.055, 13.5L11.25, 13.5L11.25, 13.528C8.78, 13.528 6.778, 15.53 6.778, 18L6.778, 18.001L6.778, 81.999L6.778, 82L6.778, 82.001L6.778, 82.5L6.828, 82.5C7.08, 84.731 8.951, 86.472 11.249, 86.472L11.249, 86.5L88.054, 86.5L88.054, 86.405C88.273, 86.438 88.492, 86.472 88.721, 86.472C91.02, 86.472 92.891, 84.732 93.143, 82.5L93.221, 82.5L93.221, 18L93.194, 18zM83.265, 76.543L72.404, 76.543C72.366, 76.388 72.312, 76.239 72.238, 76.101L72.256, 76.091L49.537, 36.741L49.528, 36.746C49.028, 35.719 47.984, 35.006 46.764, 35.006C45.513, 35.006 44.44, 35.755 43.957, 36.827L28.838, 63.013L25.136, 56.602L25.131, 56.605C24.867, 56.063 24.317, 55.687 23.674, 55.687C23.015, 55.687 22.45, 56.082 22.195, 56.645L16.735, 66.102L16.735, 23.485L83.265, 23.485L83.265, 76.543z" fill="#1177D7" />
          </g>
        </g>
      </g>
    </g>
    <g id="Layer_1" transform="translate(-2.19540152587891, -0.220600305175781)">
      <g transform="matrix(0.0404889024794102, 0, 0, 0.0404889024794102, 0, 0)">
        <g transform="matrix(8, 0, 0, 8, 0, 0)">
          <g>
            <circle cx="68.122" cy="38.584" r="10.1" fill="#1177D7" />
          </g>
        </g>
      </g>
    </g>
    <g id="Layer_1" transform="translate(14, -0.0249996185302734)" style="enable-background:new 0 0 16 16">
      <g id="Edit_1_">
        <polygon points="0,16 4,16 0,12  " fill="#D11C1C" class="Red" />
      </g>
    </g>
    <g id="Layer_1" transform="translate(14.0000010238647, -0.0250001640319826)" style="enable-background:new 0 0 16 16">
      <g id="Edit_1_">
        <rect x="1.9" y="6.5" width="9.5" height="5.6" fill="#D11C1C" class="Red" transform="matrix(0.7071, -0.7071, 0.7071, 0.7071, -4.6432, 7.4493)" />
      </g>
    </g>
    <g id="Layer_1" transform="translate(13.9999996185303, -0.025)" style="enable-background:new 0 0 16 16">
      <g id="Edit_1_">
        <path d="M15.6, 2.5L13.5, 0.4C13, -0.1 12.1, -0.1 11.6, 0.4L9.4, 2.7L13.4, 6.7L15.7, 4.4C16.1, 3.9 16.1, 3 15.6, 2.5z" fill="#D11C1C" class="Red" />
      </g>
    </g>
    <g id="Layer_1" transform="translate(14.0000001220703, -0.0249993911743172)" style="enable-background:new 0 0 16 16">
      <g id="Edit_1_">
        <rect x="1.7" y="10.5" width="1.9" height="5.6" fill="Transparent" class="Transparent" transform="matrix(0.7071, -0.7071, 0.7071, 0.7071, -8.6546, 5.7876)" />
      </g>
    </g>
    <g id="Layer_1" transform="translate(14.000000567627, -0.0250000465393065)" style="enable-background:new 0 0 16 16">
      <g id="Edit_1_">
        <rect x="9.7" y="2.5" width="1.9" height="5.6" fill="Transparent" class="Transparent" transform="matrix(0.7071, -0.7071, 0.7071, 0.7071, -0.6318, 9.1109)" />
      </g>
    </g>
  </g>
</svg>